<svg height="364.629326" viewBox="0 0 23.346106 30.853247" width="274.251117" xmlns="http://www.w3.org/2000/svg"><g fill-rule="evenodd" transform="matrix(.26458333 0 0 .26458333 -69.289445 -89.348335)"><g fill="#fff"><path d="m306.0014 442.2489c1.6878-1.1684 3.7885-2.5375 6.236-3.9668 3.0971-1.8085 6.8448-3.772 11.1954-5.6593 2.8471-1.2348 5.2177-2.4069 7.1929-3.5462 1.9097-1.1018 3.4415-2.1724 4.674-3.2408 1.0106-.8759 1.8029-1.7595 2.4384-2.6731.637-.9156 1.1101-1.8439 1.4825-2.8134 1.715-4.4583 1.5013-11.9506 1.4755-12.6986l-.0304-51.8057h-69.3286l-.0303 51.8057c-.0258.748-.2396 8.2403 1.4754 12.6986.3728.9692.8459 1.8981 1.4825 2.8134.6356.9136 1.4281 1.7975 2.4384 2.6731 1.2325 1.0684 2.764 2.139 4.6743 3.2408 1.9749 1.1393 4.3452 2.3111 7.1926 3.5462 4.3509 1.8873 8.0983 3.8508 11.1955 5.6593 2.4474 1.429 4.5485 2.7987 6.2359 3.9668zm-5.2322-78.5097c-.7704 0-1.3946.6242-1.3946 1.3946 0 .7705.6242 1.3947 1.3946 1.3947.7705 0 1.3947-.6242 1.3947-1.3947 0-.7704-.6242-1.3946-1.3947-1.3946zm2.2567.4745c.0232.0468.0587 1.2365.0587 1.2365l3.24-1.3125s.0997-.1581.0351-.2401c-.0646-.0819-.1641-.0467-.1641-.0467zm-2.2567.2636c-.3625 0-.6565.294-.6565.6565 0 .3626.294.6565.6565.6565.3626 0 .6565-.2939.6565-.6565 0-.3625-.2939-.6565-.6565-.6565z"/><path d="m326.9446 440.9453c-11.4723 4.9768-18.1953 10.7325-18.3211 10.8402-.8192.7963-1.9619 1.6611-2.8588 2.4197l-2.5753-2.5753c-.7415-.612-3.6141-2.9024-8.2868-5.663-2.7343-1.6152-6.0482-3.3735-9.8472-5.0216-3.2429-1.4066-5.9587-2.7581-8.2423-4.0893-2.3488-1.3697-4.284-2.7374-5.8986-4.1371-1.7181-1.4896-3.0745-3.0113-4.1726-4.6009-1.0951-1.5855-1.9282-3.2378-2.6034-4.9941-.8583-2.232-1.3805-4.8107-1.6942-7.2593-.4848-3.7837-.4791-7.2893-.4539-8.6346v-69.4355h88.0192v69.4355c.0252 1.3453.0309 4.8509-.4539 8.6346-.3137 2.4486-.8359 5.0273-1.6942 7.2593-.6749 1.7563-1.5083 3.4084-2.6031 4.9941-1.0981 1.5896-2.4545 3.1113-4.1729 4.6009-1.6146 1.3997-3.5498 2.7674-5.8986 4.1371-2.2833 1.3312-4.9994 2.6827-8.2423 4.0893zm-20.9446 10.3079s7.5331-6.4922 20.2833-12.0234c12.7502-5.5313 17.312-10.2175 19.656-16.3112 2.344-6.0936 1.9534-15.612 1.9534-15.612v-67.6713h-83.7854v67.6713s-.3906 9.5184 1.9534 15.612c2.344 6.0937 6.9058 10.7799 19.656 16.3112 12.7488 5.5306 20.2816 12.022 20.2833 12.0234z"/><path d="m294.1719 350.1791h-2.1665l.8866-2.1246.0119-.028.8558-2.0503.0309-.0743.7566-1.8122h-.0003l.2954-.7078.0003-.0003.0419-.1003c.0709-.1358.2461-.3606.6265-.3606h2.3887l-.3362.8053.152.3637h-.0003l.7565 1.8122.0309.0743.8558 2.0503.0119.028.8867 2.1246h-2.1665l-.428-1.0259h-3.0626zm26.2417-7.2584h.756 1.1988l2.8176 3.8965v-2.1498-1.5032c.003-.1324.1111-.2401.2432-.2435h.756 1.1988v5.5117 1.5032c-.003.1324-.1111.2401-.2432.2435h-.756-1.1988l-2.8176-3.8965v2.1498 1.5032c-.003.1324-.1111.2401-.2432.2435h-.756-1.1988v-5.5117-1.5032c.003-.1324.1111-.2401.2432-.2435zm-17.7537 0h.1174 1.8309 1.5675.0582v.0006c1.5003.0309 2.707 1.2566 2.707 2.7646s-1.2067 2.7337-2.707 2.7646h-.0105l-.0477.0006-.0476-.0006h-1.5199v1.7286h-2.198v-7.0084c0-.1378.1123-.25.2497-.25zm1.9483 1.6401v2.2502h.9176.0195.0193.004c.6105-.0128 1.1015-.5114 1.1015-1.1251s-.491-1.1123-1.1015-1.1251h-.0236zm7.4701 5.6183h-2.1665l.8867-2.1246.0119-.028.8558-2.0503.0309-.0743.7565-1.8122h-.0002l.2953-.7078.0003-.0003.042-.1003c.0708-.1358.246-.3606.6264-.3606h2.3888l-.3362.8053.1519.3637h-.0003l.7566 1.8122.0309.0743.8558 2.0503.0119.028.8867 2.1246h-2.1666l-.428-1.0259h-3.0625zm1.9593-4.6942-.174.417-.0309.0743-.6959 1.667h1.8017l-.6959-1.667-.0309-.0743zm-24.4406 3.7298c-.5354.5724-1.6304.9644-2.8947.9644-.8819 0-1.6812-.1908-2.266-.5003l.6786-1.6623c.4535.2158 1.0131.4037 1.5874.4037 1.3493 0 1.2648-1.0293 1.2648-1.0293v-.5907-2.2073h-1.5403l.6979-1.6722h.8424.8408.8901c.2568 0 .4668.174.4668.3866v4.0836c0 1.4928-.5678 1.8238-.5678 1.8238zm6.5342-3.7298-.1741.417-.0309.0743-.6959 1.667h1.8017l-.6959-1.667-.0309-.0743z"/><path d="m300.7692 363.7392c-.7704 0-1.3946.6242-1.3946 1.3946 0 .7705.6242 1.3947 1.3946 1.3947.7705 0 1.3947-.6242 1.3947-1.3947 0-.7704-.6242-1.3946-1.3947-1.3946zm2.2567.4745c.0232.0468.0587 1.2365.0587 1.2365l3.24-1.3125s.0997-.1581.0351-.2401c-.0646-.0819-.1641-.0467-.1641-.0467zm-2.2567.2636c-.3625 0-.6565.294-.6565.6565 0 .3626.294.6565.6565.6565.3626 0 .6565-.2939.6565-.6565 0-.3625-.2939-.6565-.6565-.6565z"/></g><path d="m284.763 397.8595a7.383 7.383 0 0 1 7.383 7.383 7.383 7.383 0 1 1 -7.383-7.383z" fill="#e30016"/><path d="m295.4659 357.971v4.6692c1.2146-.6732 2.5214-1.402 2.9752-1.6719.9261-.5508 1.6178-.1703 1.6178-.1703s1.8343 1.2361 2.0744 1.3183c.2401.0823.6281-.2103.7319-.5978.1037-.3875.5037-.1757.5037-.1757s.9201.7208 1.1251.9258c.2049.2049.4674.2145.4674.2145h6.211c.1987 0 .411.1775.411.1775s1.0548.5624 1.5588.9726c.504.4101-.2214.703-.2214.703l-9.7841 4.7919c-1.8635.8405-.6916 2.4344-.6916 2.4344l4.6258 4.9422 6.3383-10.0372 1.9193-3.0393c.1987-.284.5395-.7112 1.0435-1.1483v-4.3089zm8.8393 56.3207h-.7263-2.3561c-.4575 0-.8317.3744-.8317.8314v14.7716h3.9141v-5.4734h3.6039l1.1226-3.2462h-4.7265v-3.2888h2.9917.5127 2.4846l1.2433-3.5946h-1.7958-1.2019zm-8.8393-19.6929v.3555h.18zm0 4.9743v9.8025c.4243.1233.8118.1029.8118.1029h1.8791c.5142-.9811 1.294-2.4537 1.7799-3.2956.775-1.3425.1638-2.414.1638-2.414s-1.5358-3.0452-3.3499-6.6319v.0003l-1.2294 2.495zm0 12.1442v2.5744h.1794c.4575 0 .8317.3742.8317.8314v8.778c0 3.2091-1.0111 3.9209-1.0111 3.9209v5.6991l.1324.0674c1.9153.9769 3.662 1.9395 5.2356 2.8582 1.1982.6996 2.3672 1.4204 3.4778 2.1311.5794.3708 1.1432.7418 1.6863 1.1061.6259-.4207 1.2708-.8445 1.9242-1.26 1.0119-.6438 2.0968-1.3091 3.2411-1.9772 1.5381-.898 3.2718-1.8521 5.2087-2.8403v-5.9168h-1.6223l-.7625 2.2051h-3.8588l1.5794-4.5672.021-.0601 1.5242-4.4076.0553-.1595 1.3473-3.8957h-.0003l.5261-1.5214.0003-.0008.0746-.2154c.1264-.2917.4385-.7753 1.1157-.7753v-2.5744h-2.78v-.3751h-5.5193s-.8206.0581-1.2892.7263c-.4686.6681.3402-2.59 1.887-2.59h2.581l-5.2918-10.2096h-2.4139l2.1095 1.4531-2.3675 1.1953 2.9064 1.5939-3.6562 2.2731-1.7793 3.6942h2.5977c1.5469 0 2.3556 3.2581 1.887 2.59-.4685-.6682-1.2892-.7263-1.2892-.7263h-5.5193v.3751zm20.9061-2.295v-7.7269l-2.1949-2.4265h-2.3108l2.1095 1.4531-2.3675 1.1953 2.9064 1.5939-2.876 1.7881 2.1373 4.1792h1.9732s.2789.0147.6228-.0562z" fill="#e30016"/><path d="m306 444.8401c3.5495-2.5489 9.8459-6.6198 18.2701-10.2742 5.8547-2.5395 9.7637-4.8285 12.4152-7.1274 2.319-2.0106 3.6315-4.0473 4.5105-6.3335 1.963-5.1032 1.6152-13.5751 1.6143-13.5992l-.0198-.1992v-53.5876h-73.5806v53.5876l-.0198.1992c-.0009.0241-.3487 8.496 1.6143 13.5992.8793 2.2859 2.1915 4.3229 4.5105 6.3335 2.6515 2.2989 6.5605 4.5879 12.4152 7.1274 8.4242 3.6544 14.7206 7.7253 18.2701 10.2742zm-11.8281-94.661h-2.1665l.8866-2.1246.0119-.028.8558-2.0503.0309-.0743.7566-1.8122h-.0003l.2954-.7078.0003-.0003.0419-.1003c.0709-.1358.2461-.3606.6265-.3606h2.3887l-.3362.8053.152.3637h-.0003l.7565 1.8122.0309.0743.8558 2.0503.0119.028.8867 2.1246h-2.1665l-.428-1.0259h-3.0626zm26.2417-7.2584h.756 1.1988l2.8176 3.8965v-2.1498-1.5032c.003-.1324.1111-.2401.2432-.2435h.756 1.1988v5.5117 1.5032c-.003.1324-.1111.2401-.2432.2435h-.756-1.1988l-2.8176-3.8965v2.1498 1.5032c-.003.1324-.1111.2401-.2432.2435h-.756-1.1988v-5.5117-1.5032c.003-.1324.1111-.2401.2432-.2435zm-17.7537 0h.1174 1.8309 1.5675.0582v.0006c1.5003.0309 2.707 1.2566 2.707 2.7646s-1.2067 2.7337-2.707 2.7646h-.0105l-.0477.0006-.0476-.0006h-1.5199v1.7286h-2.198v-7.0084c0-.1378.1123-.25.2497-.25zm1.9483 1.6401v2.2502h.9176.0195.0193.004c.6105-.0128 1.1015-.5114 1.1015-1.1251s-.491-1.1123-1.1015-1.1251h-.0236zm7.4701 5.6183h-2.1665l.8867-2.1246.0119-.028.8558-2.0503.0309-.0743.7565-1.8122h-.0002l.2953-.7078.0003-.0003.042-.1003c.0708-.1358.246-.3606.6264-.3606h2.3888l-.3362.8053.1519.3637h-.0003l.7566 1.8122.0309.0743.8558 2.0503.0119.028.8867 2.1246h-2.1666l-.428-1.0259h-3.0625zm1.9593-4.6942-.174.417-.0309.0743-.6959 1.667h1.8017l-.6959-1.667-.0309-.0743zm-24.4406 3.7298c-.5354.5724-1.6304.9644-2.8947.9644-.8819 0-1.6812-.1908-2.266-.5003l.6786-1.6623c.4535.2158 1.0131.4037 1.5874.4037 1.3493 0 1.2648-1.0293 1.2648-1.0293v-.5907-2.2073h-1.5403l.6979-1.6722h.8424.8408.8901c.2568 0 .4668.174.4668.3866v4.0836c0 1.4928-.5678 1.8238-.5678 1.8238zm6.5342-3.7298-.1741.417-.0309.0743-.6959 1.667h1.8017l-.6959-1.667-.0309-.0743zm9.8688 105.7683s7.5331-6.4922 20.2833-12.0234c12.7502-5.5313 17.312-10.2175 19.656-16.3112 2.344-6.0936 1.9534-15.612 1.9534-15.612v-67.6713h-83.7854v67.6713s-.3906 9.5184 1.9534 15.612c2.344 6.0937 6.9058 10.7799 19.656 16.3112 12.7488 5.5306 20.2816 12.022 20.2833 12.0234z" fill="#0f0d04"/><path d="m339.6317 360.58h-15.0075-3.458c-3.4911 0-5.2617 2.0242-5.8377 2.8482l-1.9193 3.0393-6.3383 10.0372-4.6258-4.9422s-1.1719-1.5939.6916-2.4344l9.7841-4.7919s.7254-.2929.2214-.703c-.504-.4102-1.5588-.9726-1.5588-.9726s-.2123-.1775-.411-.1775-6.211 0-6.211 0-.2625-.01-.4674-.2145c-.205-.205-1.1251-.9258-1.1251-.9258s-.4-.2118-.5037.1757c-.1038.3875-.4918.6801-.7319.5978-.2401-.0822-2.0744-1.3183-2.0744-1.3183s-.6917-.3805-1.6178.1703c-.926.5508-5.4031 3.0121-5.4031 3.0121s-.9031.527-.9031 1.9568v13.337l-1.3133 4.5005s-.4232 1.0392.1406 2.0158c.2778.481 2.5002 4.8526 4.6837 9.1638h-10.0213l-1.3479-1.0783h-.4805v1.3595h-2.3374l-1.3451 2.7142c1.3425-.8575 2.9379-1.355 4.6491-1.355 4.3798 0 7.9988 3.2564 8.5689 7.4801l.0006.0003 1.1579-2.3502v-.0003l.0003-.0006c.007-.0249.2367-.8252-.072-1.1339-.3135-.3135-3.2519-3.5393-3.2519-3.5393h1.9511l2.4035 2.5815 1.2294-2.495v-.0003c1.8141 3.5867 3.3499 6.6319 3.3499 6.6319s.6112 1.0715-.1638 2.414c-.4859.8419-1.2657 2.3145-1.7799 3.2956h-1.8791s-1.2458.066-1.7172-.7504v1.3128h-2.3148s-1.6407 0-1.5565 2.5789c0 0 .8552-.9025 1.6991-.9025h6.0466v-.3751h5.5193s.8207.0581 1.2892.7263c.4686.6681-.3401-2.59-1.887-2.59h-2.5977l1.7793-3.6942 3.6562-2.2731-2.9064-1.5939 2.3675-1.1953-2.1095-1.4531h2.4139l5.2918 10.2096h-2.581c-1.5468 0-2.3556 3.2581-1.887 2.59.4686-.6682 1.2892-.7263 1.2892-.7263h5.5193v.3751h6.0466c.8439 0 1.6991.9025 1.6991.9025.0842-2.5789-1.5565-2.5789-1.5565-2.5789h-2.3148v-1.3128c-.4714.8164-1.7172.7504-1.7172.7504h-1.9732l-2.1373-4.1792 2.876-1.7881-2.9064-1.5939 2.3675-1.1953-2.1095-1.4531h2.3108l6.5222 7.2102h2.6986l-9.2154-10.1874h2.086l9.2154 10.1874h2.7927l-11.8443-13.0935h2.0861l11.8442 13.0935h3.54l-13.9646-15.4375h6.9363l-4.5266-4.5266h-6.5044l-1.4627-1.6169h7.1533l3.3687-4.5266h-12.7764l1.0211-1.6169h12.9586l3.3687-4.5267h-13.4689l1.0211-1.6168h13.6511l3.3687-4.5264h-14.1617l1.0214-1.6172h14.3438zm-38.8625 3.1592c-.7704 0-1.3946.6242-1.3946 1.3946 0 .7705.6242 1.3947 1.3946 1.3947.7705 0 1.3947-.6242 1.3947-1.3947 0-.7704-.6242-1.3946-1.3947-1.3946zm2.2567.4745c.0232.0468.0587 1.2365.0587 1.2365l3.24-1.3125s.0997-.1581.0351-.2401c-.0646-.0819-.1641-.0467-.1641-.0467zm-2.2567.2636c-.3625 0-.6565.294-.6565.6565 0 .3626.294.6565.6565.6565.3626 0 .6565-.2939.6565-.6565 0-.3625-.2939-.6565-.6565-.6565z" fill="#0f0d04"/><path d="m295.4656 427.822c-.9533 1.23-2.9038 2.0727-5.1554 2.0727-1.5706 0-2.9945-.4102-4.0359-1.0757l1.2084-3.5728v-.0003c.8081.4637 1.8048.868 2.8275.868 2.4032 0 2.2527-2.2128 2.2527-2.2128v-1.2699-4.7449h-2.7433l1.243-3.5946h1.5003 1.4973 1.5851c.4575 0 .8317.3742.8317.8314v8.778c0 3.2091-1.0111 3.9209-1.0111 3.9209zm18.5216 2.0727h-3.8588l1.5794-4.5672.021-.0601 1.5242-4.4076.0553-.1595 1.3473-3.8957h-.0003l.5261-1.5214.0003-.0008.0746-.2154c.1264-.2917.4385-.7753 1.1157-.7753h4.2548l-.599 1.7314.2704.7815h-.0002l1.3473 3.8957.0552.1595 1.5242 4.4076.021.0601 1.5795 4.5672h-3.8588l-.7626-2.2051h-5.4541zm3.4897-10.0908-.3101.8964-.055.1595h-.0003l-1.2393 3.5836h3.2091l-1.2393-3.5836h-.0003l-.055-.1595zm-13.1717-5.5122h-.7263-2.3561c-.4575 0-.8317.3744-.8317.8314v14.7716h3.9141v-5.4734h3.6039l1.1226-3.2462h-4.7265v-3.2888h2.9917.5127 2.4846l1.2433-3.5946h-1.7958-1.2019z" fill="#0f0d04"/><path d="m306.0014 442.2489c1.6878-1.1684 3.7885-2.5375 6.236-3.9668 3.0971-1.8085 6.8448-3.772 11.1954-5.6593 2.8471-1.2348 5.2177-2.4069 7.1929-3.5462 1.9097-1.1018 3.4415-2.1724 4.674-3.2408 1.0106-.8759 1.8029-1.7595 2.4384-2.6731.637-.9156 1.1101-1.8439 1.4825-2.8134 1.715-4.4583 1.5013-11.9506 1.4755-12.6986l-.0304-51.8057h-69.3286l-.0303 51.8057c-.0258.748-.2396 8.2403 1.4754 12.6986.3728.9692.8459 1.8981 1.4825 2.8134.6356.9136 1.4281 1.7975 2.4384 2.6731 1.2325 1.0684 2.764 2.139 4.6743 3.2408 1.9749 1.1393 4.3452 2.3111 7.1926 3.5462 4.3509 1.8873 8.0983 3.8508 11.1955 5.6593 2.4474 1.429 4.5485 2.7987 6.2359 3.9668zm36.8099-34.7144.0003.5711c.0002.005.017.4119.0226 1.0973-.007 2.74-.2162 8.2049-1.6384 11.9021-.879 2.2862-2.1915 4.3229-4.5105 6.3335-2.6515 2.2989-6.5605 4.5879-12.4152 7.1274-8.4242 3.6544-14.7206 7.7253-18.2701 10.2742-3.5495-2.5489-9.8459-6.6198-18.2701-10.2742-5.8547-2.5395-9.7637-4.8285-12.4152-7.1274-2.319-2.0106-3.6312-4.0476-4.5105-6.3335-1.4222-3.6972-1.6313-9.1621-1.6384-11.9021.006-.6854.0224-1.0919.0226-1.0973l.0003-.5711.001-.0287.0198-.1992v-53.5876h36.7905 36.7903v53.5876l.0198.1992z" fill="#b09438"/></g></svg>